<?xml version="1.0" encoding="utf-8"?>
<!-- Generator: Adobe Illustrator 24.0.2, SVG Export Plug-In . SVG Version: 6.00 Build 0)  -->
<svg version="1.1" xmlns="http://www.w3.org/2000/svg" xmlns:xlink="http://www.w3.org/1999/xlink" x="0px" y="0px"
	 viewBox="0 0 512 512" style="enable-background:new 0 0 512 512;" xml:space="preserve">
<style type="text/css">
	.st0{fill:#C5E9F9;}
	.st1{fill:#5E889E;}
</style>
<g id="Layer_1">
	<circle class="st0" cx="256.3281" cy="255.9678" r="248.873"/>
</g>
<g id="Layer_2">
	<g>
		<path class="st1" d="M375.9177,147.5602c-1.818-1.818-4.2051-2.7301-6.5937-2.7301H142.8491
			c-2.3855,0-4.7742,0.9121-6.5953,2.7301c-1.818,1.8227-2.7301,4.2082-2.7301,6.5953v155.8681h245.1287V154.1555
			C378.6509,151.7684,377.7372,149.3829,375.9177,147.5602z M256.0881,150.0502c1.5342,0,2.7784,1.2395,2.7784,2.7769
			c0,1.528-1.2442,2.7753-2.7784,2.7753c-1.5327,0-2.7784-1.2473-2.7784-2.7753
			C253.3097,151.2897,254.5554,150.0502,256.0881,150.0502z M362.6632,294.0374H149.5099V160.8178h213.1533V294.0374z"/>
		<path class="st1" d="M133.5238,316.4644l-32.3729,32.2794c-0.9277,0.9215-1.2567,2.3481-0.725,3.6297
			c0.5317,1.2801,1.7681,2.0565,3.0778,2.0565h305.1689c1.3081,0,2.5477-0.7765,3.0793-2.0565
			c0.5317-1.2816,0.1996-2.7083-0.725-3.6297l-32.3745-32.2794H133.5238z M376.9716,334.7129
			c0.658,0.7609,0.8466,1.8679,0.4007,2.8486c-0.4521,0.9745-1.4126,1.5482-2.4229,1.5482h-86.6755l0.4865,2.228
			c0.0982,0.4553,0,0.9495-0.3149,1.344c-0.3181,0.3867-0.7812,0.5909-1.2473,0.5909h-62.2247
			c-0.4631,0-0.9246-0.2043-1.2442-0.5909c-0.3134-0.3945-0.4147-0.8887-0.3134-1.344l0.4865-2.228h-86.6786
			c-1.0072,0-1.9739-0.5738-2.4198-1.5482c-0.449-0.9807-0.2573-2.0877,0.3976-2.8486l8.8108-10.2546h224.1486L376.9716,334.7129z"
			/>
		<path class="st1" d="M408.671,356.4321h-125.6c-0.1357,0.3149-0.3228,0.6159-0.5519,0.8872
			c-0.6829,0.8108-1.6839,1.2754-2.7473,1.2754h-47.3674c-1.0634,0-2.0643-0.4662-2.7519-1.2754
			c-0.2276-0.2729-0.4132-0.5722-0.5519-0.8872H103.5036c-1.2427,0-2.4011-0.4366-3.3273-1.1803v3.3444
			c0,2.0441,0.7811,4.0912,2.3403,5.6489c1.5623,1.5638,3.6063,2.345,5.652,2.345h295.8358c2.0472,0,4.0912-0.7812,5.6488-2.345
			c1.5654-1.5576,2.345-3.6064,2.345-5.6489v-3.3444C411.0721,355.9939,409.9137,356.4321,408.671,356.4321z M128.3489,363.2549
			c-0.9604,0-1.74-0.7811-1.74-1.7462c0-0.9558,0.7796-1.7431,1.74-1.7431c0.9636,0,1.7431,0.7874,1.7431,1.7431
			C130.092,362.4738,129.3125,363.2549,128.3489,363.2549z M136.7278,363.2549c-0.9604,0-1.7416-0.7811-1.7416-1.7462
			c0-0.9558,0.7811-1.7431,1.7416-1.7431c0.9636,0,1.7478,0.7874,1.7478,1.7431
			C138.4757,362.4738,137.6914,363.2549,136.7278,363.2549z M145.1099,363.2549c-0.9636,0-1.7447-0.7811-1.7447-1.7462
			c0-0.9558,0.7811-1.7431,1.7447-1.7431c0.9604,0,1.7416,0.7874,1.7416,1.7431
			C146.8515,362.4738,146.0704,363.2549,145.1099,363.2549z"/>
		<g>
			<path class="st1" d="M203.5302,278.9666h-18.6492v-19.5628c0-0.5145,0.1965-1.0244,0.5862-1.4157
				c0.3882-0.3882,0.9028-0.5831,1.4095-0.5831h14.6546c0.5145,0,1.0244,0.1949,1.4142,0.5831
				c0.3882,0.3914,0.5831,0.9012,0.5831,1.4157v19.5628H203.5302z"/>
			<path class="st1" d="M241.8311,278.9666h-18.6507v-47.7089c0-0.513,0.1965-1.0213,0.5862-1.4126
				c0.3882-0.3882,0.9028-0.5878,1.4126-0.5878h14.6515c0.5145,0,1.0275,0.1996,1.4173,0.5878
				c0.3882,0.3898,0.5831,0.8996,0.5831,1.4126C241.8311,231.2577,241.8311,278.9666,241.8311,278.9666z"/>
			<path class="st1" d="M280.1398,278.9666h-18.6554V246.578c0-0.5099,0.1949-1.0244,0.5862-1.4126
				c0.3882-0.3898,0.9012-0.5862,1.4095-0.5862h14.6561c0.5083,0,1.0212,0.1965,1.411,0.5862
				c0.3882,0.3882,0.5909,0.9028,0.5909,1.4126v32.3885H280.1398z"/>
			<path class="st1" d="M323.5095,211.7775c0.7156,0,1.4095-0.3882,1.7681-1.068c0.3571-0.6767,0.2884-1.4672-0.1169-2.0596
				l-14.3989-21.1002c-0.3586-0.5286-0.9651-0.8716-1.648-0.8716c-0.686,0-1.2957,0.3415-1.6543,0.8716l-14.4005,21.1002
				c-0.4038,0.5925-0.474,1.383-0.1169,2.0596c0.3586,0.6798,1.0509,1.068,1.7665,1.068h5.0767v67.1891h18.6523v-67.189H323.5095z"
				/>
		</g>
		<path class="st1" d="M159.5026,284.0494V181.4533c0-0.4225-0.1606-0.8451-0.4834-1.1678
			c-0.3227-0.3228-0.7453-0.4834-1.1694-0.4834h-0.0265c-0.4225,0-0.8466,0.1606-1.1647,0.4834
			c-0.3274,0.3227-0.4865,0.7453-0.4865,1.1678v105.9249h198.1807c0.4194,0,0.8435-0.1637,1.1647-0.4849
			c0.3243-0.3212,0.4849-0.7468,0.4849-1.1709v-0.025c0-0.4225-0.1606-0.8435-0.4849-1.1694
			c-0.3212-0.3196-0.7469-0.4802-1.1647-0.4802H159.5026V284.0494z"/>
	</g>
</g>
</svg>
